<svg xmlns="http://www.w3.org/2000/svg" width="800" height="600" viewBox="0 0 800 600">
  <defs>
    <linearGradient id="bg" x1="0" y1="0" x2="1" y2="1">
      <stop offset="0" stop-color="#8a6d3b"/><stop offset="1" stop-color="#5d4a23"/>
    </linearGradient>
    <linearGradient id="panneau" x1="0" y1="0" x2="0" y2="1">
      <stop offset="0" stop-color="#e8d5a8"/><stop offset="1" stop-color="#c9ae72"/>
    </linearGradient>
  </defs>
  <rect width="800" height="600" fill="url(#bg)"/>
  <rect x="130" y="90" width="540" height="380" rx="10" fill="url(#panneau)"/>
  <rect x="160" y="120" width="480" height="320" fill="none" stroke="#a0864f" stroke-width="3" stroke-dasharray="12 8" rx="6"/>
  <g fill="#b59a5e">
    <rect x="190" y="160" width="60" height="60" rx="4"/>
    <rect x="280" y="160" width="60" height="60" rx="4"/>
    <rect x="370" y="160" width="60" height="60" rx="4"/>
    <rect x="460" y="160" width="60" height="60" rx="4"/>
    <rect x="190" y="250" width="60" height="60" rx="4"/>
    <rect x="280" y="250" width="60" height="60" rx="4"/>
    <rect x="370" y="250" width="60" height="60" rx="4"/>
    <rect x="460" y="250" width="60" height="60" rx="4"/>
    <rect x="190" y="340" width="60" height="60" rx="4"/>
    <rect x="280" y="340" width="60" height="60" rx="4"/>
    <rect x="370" y="340" width="60" height="60" rx="4"/>
    <rect x="460" y="340" width="60" height="60" rx="4"/>
  </g>
  <text x="400" y="520" font-family="Arial, sans-serif" font-size="34" font-weight="bold" fill="#ffffff" text-anchor="middle">MDF</text>
  <text x="400" y="560" font-family="Arial, sans-serif" font-size="20" fill="#f0e6c8" text-anchor="middle">Panneaux MDF bruts, mélaminés, hydrofuges</text>
</svg>
