<svg xmlns="http://www.w3.org/2000/svg" width="800" height="600" viewBox="0 0 800 600">
  <defs>
    <linearGradient id="bg" x1="0" y1="0" x2="1" y2="1">
      <stop offset="0" stop-color="#8d6e63"/><stop offset="1" stop-color="#5d4037"/>
    </linearGradient>
    <linearGradient id="bois" x1="0" y1="0" x2="0" y2="1">
      <stop offset="0" stop-color="#d7b48c"/><stop offset="1" stop-color="#a97c50"/>
    </linearGradient>
  </defs>
  <rect width="800" height="600" fill="url(#bg)"/>
  <g stroke="#7a5232" stroke-width="3" opacity="0.7">
    <line x1="130" y1="250" x2="700" y2="250"/>
    <line x1="130" y1="330" x2="700" y2="330"/>
    <line x1="130" y1="410" x2="700" y2="410"/>
  </g>
  <g fill="url(#bois)">
    <rect x="130" y="170" width="170" height="80" rx="6"/>
    <rect x="315" y="170" width="170" height="80" rx="6"/>
    <rect x="500" y="170" width="170" height="80" rx="6"/>
    <rect x="130" y="250" width="170" height="80" rx="6"/>
    <rect x="315" y="250" width="170" height="80" rx="6"/>
    <rect x="500" y="250" width="170" height="80" rx="6"/>
    <rect x="130" y="330" width="170" height="80" rx="6"/>
    <rect x="315" y="330" width="170" height="80" rx="6"/>
    <rect x="500" y="330" width="170" height="80" rx="6"/>
  </g>
  <g stroke="#8a613f" stroke-width="3" opacity="0.8">
    <line x1="150" y1="180" x2="290" y2="240"/>
    <line x1="340" y1="190" x2="470" y2="235"/>
    <line x1="520" y1="180" x2="655" y2="245"/>
  </g>
  <text x="400" y="500" font-family="Arial, sans-serif" font-size="34" font-weight="bold" fill="#ffffff" text-anchor="middle">Parquet</text>
  <text x="400" y="540" font-family="Arial, sans-serif" font-size="20" fill="#e8d5c4" text-anchor="middle">Massif, contrecollé ou stratifié</text>
</svg>
